PathFileType	4	(X/Y/Z)	C:/Users/beibeiliu/ov580/test_trc/User2\sequence.5_training_dense_right.trc
DataRate	CameraRate	NumFrames	NumMarkers	Units	OrigDataRate	OrigDataStartFrame	OrigNumFrames
120	120	24	19	mm	120	30	58
Frame#	Time	ThumbCMC			ThumbMCP			ThumbIP			ThumbTip			IndexMCP			IndexPIP			IndexTip			MiddleMCP			MiddlePIP			MiddleTip			RingMCP			RingPIP			RingTip			PinkyMCP			PinkyPIP			PinkyTip			BackHand1			BackHand2			BackHand3	
		X0	Y0	Z0	X1	Y1	Z1	X2	Y2	Z2	X3	Y3	Z3	X4	Y4	Z4	X5	Y5	Z5	X6	Y6	Z6	X7	Y7	Z7	X8	Y8	Z8	X9	Y9	Z9	X10	Y10	Z10	X11	Y11	Z11	X12	Y12	Z12	X13	Y13	Z13	X14	Y14	Z14	X15	Y15	Z15	X16	Y16	Z16	X17	Y17	Z17	X18	Y18	Z18	
29	0.241667	115.82	7.03551	-26.8707	118.565	33.9944	-45.4153	124.006	59.5546	-71.1774	118.791	77.1191	-89.6116	72.1242	-14.6838	-100.799	65.6668	-10.6325	-123.829	52.9694	-2.68024	-148.505	44.4655	-27.6956	-93.7893	26.4464	-23.1979	-119.562	10.3551	-16.926	-147.683	21.3497	-24.0659	-72.3513	1.80761	-19.2153	-93.8587	-15.8813	-13.2981	-114.779	7.39304	-15.6068	-44.7099	-17.1941	-6.10098	-55.0382	-36.2571	-2.05214	-62.8446	56.0635	-35.7683	-29.3936	70.8612	-42.8462	2.39007	97.2594	-28.6323	-29.6787	
30	0.25	120.603	10.4039	-30.6703	119.708	36.1465	-49.4782	119.119	59.7433	-71.23	113.728	76.5605	-88.3315	86.9197	-18.4077	-100.906	72.7182	-17.7707	-126.403	61.7985	-13.1059	-149.742	57.1833	-35.9042	-94.8091	38.5511	-35.7578	-122.987	19.2189	-31.6507	-147.34	31.617	-36.6963	-77.271	14.7684	-33.9463	-97.7776	-8.93115	-30.3726	-117.925	17.137	-28.9654	-50.9982	-5.51991	-22.3229	-63.8926	-25.2532	-21.0327	-72.4807	66.8492	-41.4544	-29.4885	82.0632	-43.66	-1.49327	106.172	-30.1101	-29.9861	
31	0.258333	122.893	15.2717	-28.5074	115.705	41.3744	-51.3827	110.733	63.114	-72.6414	101.282	79.9891	-92.396	96.1818	-22.8786	-97.9589	85.6415	-22.0446	-128.116	69.5169	-20.5366	-151.385	73.3612	-45.4043	-96.6402	54.8209	-47.8815	-122.608	35.2268	-44.3053	-151.269	49.2461	-49.4444	-80.9522	29.4799	-51.2393	-99.8002	13.3531	-48.5723	-120.814	31.0731	-46.6688	-51.6146	9.76639	-43.8037	-66.4047	-10.8909	-44.2541	-81.0318	83.7644	-45.9549	-31.9287	100.618	-45.9346	-0.661309	115.459	-28.7043	-29.1885	
32	0.266667	122.502	26.0983	-23.9849	105.837	47.2969	-49.148	93.8201	66.8955	-73.2598	77.1985	74.0372	-92.7292	115.258	-18.4762	-97.4778	104.766	-18.5215	-130.692	88.8405	-19.9324	-150.427	102.243	-45.4632	-95.5926	86.1988	-51.7627	-128.216	61.6261	-56.2504	-151.323	81.6945	-61.459	-82.7199	65.1288	-67.9178	-105.601	41.5134	-69.6683	-127.389	62.6979	-66.0583	-57.4576	37.9736	-72.5838	-70.9688	16.4893	-72.6359	-91.2944	107.864	-50.4687	-30.797	116.347	-45.7021	-0.892479	130.094	-20.8824	-30.4392	
33	0.275	113.264	32.8527	-21.393	92.3758	49.5772	-41.679	72.9334	61.3421	-67.9902	56.8601	62.7513	-92.8615	129.309	-2.04541	-100.568	120.422	-7.21286	-126.935	102.105	-15.1595	-148.87	125.264	-36.2091	-94.7395	113.802	-43.8435	-128.855	92.1411	-49.4126	-152.705	111.568	-58.8778	-88.1996	98.8347	-68.0159	-110.346	77.7496	-72.5049	-129.882	93.6706	-71.1589	-64.8698	74.5664	-80.9535	-80.8858	53.642	-88.0414	-100.641	131.819	-39.8586	-31.5136	135.308	-32.8704	-2.45442	139.726	-0.223086	-24.407	
34	0.283333	103.532	39.6615	-18.7807	77.742	49.3943	-42.2004	59.2136	49.6696	-65.3995	42.5384	49.3205	-91.28	134.047	15.9999	-93.5253	125.385	15.6002	-126.305	111.634	5.59255	-145.865	141.657	-8.3052	-97.9344	132.893	-19.726	-126.512	111.541	-32.0743	-153.97	135.231	-35.4939	-87.8166	125.669	-47.6177	-110.076	106.151	-54.2362	-137.887	121.187	-56.8847	-67.7894	105.398	-70.2933	-86.1665	91.9325	-77.4943	-106.746	143.733	-21.194	-26.8413	143.895	-13.8476	4.65767	140.884	18.2306	-21.0402	
35	0.291667	92.5494	48.6807	-9.11157	66.0164	49.5022	-39.1309	46.1601	47.1242	-64.3799	37.0033	37.6233	-86.4071	129.808	46.9752	-89.8253	124.383	38.9114	-114.619	112.434	32.5842	-140.013	146.93	20.6937	-93.0445	141.136	11.2573	-123.432	128.976	-3.69402	-150.233	147.775	-9.482	-82.3468	140.757	-17.3668	-111.798	129.369	-30.9841	-137.253	140.571	-32.5461	-69.5364	130.548	-43.6701	-85.825	120.656	-56.5092	-108.616	151.099	8.53091	-22.549	146.926	8.31968	12.5479	137.414	38.4819	-11.4434	
36	0.3	77.0023	54.7289	-6.0462	52.8415	46.7145	-29.4626	34.8316	41.2136	-63.4222	25.1454	32.2998	-82.4521	116.335	67.0204	-79.8538	108.692	66.2036	-107.002	104.019	54.8393	-131.774	135.54	52.6154	-84.7858	135.2	43.7447	-114.523	128.662	34.8226	-148.009	146.585	21.9146	-77.1987	144.532	11.9436	-106.755	139.572	2.91521	-133.601	147.773	-5.34866	-61.0333	144.302	-20.6655	-88.0097	142.134	-26.1573	-105.592	143.316	31.5889	-16.2446	140.605	31.4527	13.9923	121.431	57.4881	-0.334262	
37	0.308333	57.6746	53.3628	4.21104	33.1738	43.5003	-22.8766	16.9931	35.074	-57.2163	9.8496	25.1571	-77.3714	91.0213	80.9659	-69.9649	87.6661	79.9097	-97.8205	79.3438	76.6093	-125.912	117.613	71.4915	-76.4131	119.648	66.5549	-108.042	117.717	60.0924	-140.816	134.329	45.0171	-71.1863	134.897	38.2295	-101.492	133.543	33.9455	-126.673	142.007	15.9834	-58.53	143.352	4.5921	-83.9068	144.955	-0.978108	-106.535	129.462	48.8572	-8.62395	128.364	44.1006	20.0685	100.934	69.2374	1.80716	
38	0.316667	42.3327	52.9637	9.65051	20.705	40.1974	-17.802	4.66539	30.8172	-50.4993	-3.75341	19.7324	-68.1595	71.0189	85.74	-68.3835	64.6884	86.4525	-94.538	61.0089	81.4618	-122.202	101.446	77.0616	-70.5285	99.0711	77.9867	-102.024	98.5386	75.4959	-136.139	117.869	55.697	-70.9552	122.586	50.3987	-93.3221	121.229	48.4443	-122.681	129.473	28.472	-54.0363	133.245	17.3076	-75.801	136.698	13.6468	-99.7878	113.228	54.7652	-5.74692	111.524	51.8445	23.5232	85.4313	73.3958	7.79836	
39	0.325	26.9667	49.516	13.6196	9.83352	34.7378	-16.965	-3.6718	23.2188	-44.7951	-14.7216	11.3877	-61.5892	53.0041	82.4302	-59.0973	46.5348	84.2521	-87.5495	41.9391	81.2529	-116.372	81.8718	78.185	-70.1464	83.4368	75.9942	-102.629	83.7112	72.3823	-133.948	105.796	53.4459	-69.3586	106.607	51.2188	-93.6051	107.111	48.6058	-122.464	115.337	30.9644	-54.5581	121.221	18.6514	-77.0537	126.496	13.4572	-100.243	103.45	53.9668	-4.94552	102.368	48.7722	28.1811	70.71	72.4793	10.3788	
40	0.333333	17.5368	44.5782	14.1241	-0.435851	26.0509	-9.31482	-17.7167	12.6195	-36.2068	-26.1733	1.60379	-56.2202	38.9691	76.1347	-58.8905	34.654	74.2613	-87.0091	28.5377	71.5075	-117.469	71.6569	69.1376	-67.6945	67.8835	68.2318	-97.6729	68.0573	65.023	-131.725	93.2675	46.5688	-63.6424	93.6068	44.0811	-91.6828	96.4322	40.299	-118.108	106.926	22.22	-51.5815	110.659	11.1346	-74.6989	116.628	5.8438	-95.7893	89.655	51.6235	-4.77978	92.3621	49.049	28.4338	61.1224	64.7427	11.6843	
41	0.341667	9.83969	35.0786	16.6045	-11.3591	14.9657	-3.05401	-25.8623	-0.294391	-32.1395	-38.8503	-14.3273	-51.0397	24.6766	64.9145	-59.664	19.6133	61.7846	-87.9056	12.9219	58.1064	-113.036	56.4361	59.6426	-71.2962	57.5799	54.5469	-100.907	56.9666	48.6579	-133.484	81.7738	37.4408	-67.2595	81.3551	34.1251	-89.5864	84.8488	26.989	-120.988	96.3947	14.3527	-48.2504	98.6724	3.07596	-75.9255	106.599	-4.7702	-92.425	80.9066	45.7832	-2.98915	81.4039	42.9113	25.1065	46.9313	59.5442	12.279	
42	0.35	1.8986	21.4541	15.9065	-17.6859	-1.12608	-0.903461	-36.3467	-19.4968	-27.8252	-49.0643	-34.5602	-44.9032	15.4485	44.2612	-65.3276	9.03722	39.9288	-88.1675	2.30181	33.8997	-114.367	47.0048	40.0331	-73.758	46.0536	34.2823	-100.065	43.6202	27.1732	-132.35	67.5567	22.5295	-66.8101	71.4531	14.8034	-92.3961	70.8157	9.16996	-117.12	88.2017	0.30957	-48.553	91.9972	-11.9144	-69.2354	98.6759	-20.2146	-92.1699	70.1589	34.795	-4.99318	73.1348	34.5672	23.2649	36.5207	47.3367	6.63163	
43	0.358333	-7.82039	6.71551	16.625	-22.6382	-17.5311	-0.463022	-41.0556	-37.4791	-21.8784	-52.4708	-53.2984	-35.973	7.68442	24.3132	-63.0594	-4.892	18.2395	-93.3339	-9.51891	10.2941	-115.212	35.9201	20.0562	-71.0709	31.8885	12.9889	-103.644	31.7303	3.42035	-131.726	60.632	4.82307	-67.1276	62.152	-6.63619	-95.1126	66.1543	-16.5154	-117.675	81.842	-15.8521	-50.9226	82.4646	-29.6274	-70.9815	90.062	-41.2464	-90.4388	61.3114	21.3495	-7.54257	64.9058	25.0984	20.8124	31.6445	32.1587	7.36243	
44	0.366667	-8.99916	-4.97074	14.6315	-27.8215	-28.0119	3.57543	-47.4683	-49.3643	-15.447	-62.0161	-66.331	-27.9225	-3.91551	7.19685	-67.8104	-13.5287	-1.2406	-89.3167	-16.4539	-13.6568	-116.177	26.007	0.876108	-75.4122	25.5161	-11.2148	-104.994	21.7878	-23.16	-132.831	52.1591	-16.5496	-71.4324	52.0034	-28.6284	-95.5301	53.4955	-42.0655	-116.986	68.8222	-31.73	-51.5667	73.9311	-51.3859	-70.4857	75.0983	-62.5959	-90.1695	56.3802	9.12626	-14.7216	60.2598	12.9193	21.3293	23.8618	21.6714	5.32488	
45	0.375	-11.2399	-0.627355	18.3774	-35.2864	-23.2041	7.22588	-60.1475	-41.7769	-7.40536	-77.5261	-57.7337	-16.5019	-6.07243	1.57024	-62.468	-22.3196	-9.18925	-85.6953	-30.9376	-23.8953	-111.081	17.5857	-8.33884	-73.6156	11.4221	-22.5864	-99.1536	7.83519	-41.3194	-127.08	40.1635	-26.3923	-66.0431	37.1976	-44.8477	-90.9639	33.9984	-59.9291	-112.274	60.8371	-46.2967	-50.5447	55.5115	-62.8447	-64.315	60.2148	-81.7738	-82.49	50.7017	2.06308	-13.6688	62.9464	9.98839	18.4154	21.1025	21.5238	0.848229	
46	0.383333	-9.56685	22.2706	20.904	-36.1121	5.22562	14.2967	-69.3639	-8.60506	2.41248	-85.2407	-19.9957	-1.73156	-12.5916	11.9206	-60.3584	-26.8579	-0.823602	-82.0287	-42.628	-16.6974	-104.263	10.1918	-8.86659	-70.5169	-4.55958	-24.6948	-95.1281	-15.967	-43.8447	-116.78	25.0541	-30.1651	-62.9548	13.0546	-49.73	-83.0023	1.96875	-66.4189	-101.342	41.5363	-54.8916	-45.7683	29.5817	-75.4941	-57.6492	21.29	-87.7224	-71.9821	52.0339	-4.63013	-19.0163	65.3225	7.003	9.86395	32.2516	26.8053	-2.27918	
47	0.391667	7.36853	42.6695	20.3102	-30.1792	39.4552	17.0273	-63.1165	35.8398	10.0161	-84.7636	26.2998	2.71107	-9.90631	27.1101	-59.1696	-29.6384	14.55	-80.1913	-51.4983	8.05986	-94.71	2.42276	-4.39592	-69.38	-20.8636	-16.015	-91.0055	-41.5616	-28.8518	-109.472	10.3668	-27.6323	-57.6461	-9.45922	-46.1572	-74.0894	-27.4025	-56.1644	-87.7114	17.49	-50.4528	-37.7878	-1.60644	-63.5466	-47.1103	-13.6871	-78.3708	-58.6746	51.1655	-4.70648	-17.6729	67.4814	6.36663	10.4546	42.9025	33.499	-3.23964	
48	0.4	22.3036	58.4929	15.9462	-12.1232	65.1994	16.1511	-47.5102	69.2912	8.02853	-68.4271	69.8867	7.70554	-6.53436	35.5227	-64.5233	-26.4201	36.7457	-76.9981	-50.2503	27.7073	-89.8639	-3.63201	4.28565	-66.5606	-29.0955	0.644728	-83.5929	-55.1272	-7.94462	-99.8684	-3.13796	-18.0246	-54.5973	-24.4396	-28.9792	-64.0946	-52.4602	-40.2361	-78.2443	0.183403	-40.2536	-28.1458	-22.7728	-52.7115	-32.4482	-41.7242	-59.4316	-43.248	46.856	-6.12709	-15.2973	67.2713	-1.43175	6.26902	52.3507	33.458	-8.81742	
49	0.408333	39.4151	61.1685	8.9695	5.45653	78.1335	6.97308	-22.2525	92.5929	5.27592	-46.0434	99.5644	1.97403	3.60878	42.3734	-62.6005	-23.6678	46.7068	-79.1734	-48.8013	47.6871	-90.4896	-1.4716	16.4243	-63.1023	-34.5122	11.3339	-80.2138	-59.0121	12.1665	-92.2497	-12.0531	-11.6069	-48.4964	-34.7625	-11.3766	-59.1312	-64.1666	-15.8102	-70.0497	-11.3502	-25.6334	-22.7865	-38.5471	-31.9327	-22.2781	-57.9893	-35.6544	-30.991	41.8755	-7.7567	-16.4902	63.9939	-4.3027	6.75894	61.3912	27.6521	-12.728	
50	0.416667	55.1587	66.1302	2.87238	28.495	89.2732	4.58396	2.77107	106.951	-0.00764843	-18.3678	122.114	-3.55225	12.5495	50.4192	-66.8232	-10.6318	59.7183	-80.4041	-34.6622	65.8875	-89.9346	-4.2404	24.249	-64.642	-29.3428	29.8322	-76.0294	-60.0543	29.8708	-86.4523	-16.3961	0.67908	-43.2011	-39.7037	4.95389	-51.3382	-69.7747	7.98358	-60.6642	-20.2149	-10.0401	-16.1242	-45.4619	-6.57998	-19.0665	-68.8474	-8.99393	-17.5523	37.7612	-3.86182	-17.393	62.5145	-8.18577	5.54701	65.6992	21.9532	-13.3065	
51	0.425	73.021	63.667	-0.0492265	46.7709	90.0489	-3.74004	26.3227	113.239	-6.72165	10.3633	133.401	-10.6201	22.0216	50.888	-66.5729	1.27739	64.9715	-79.3808	-20.2739	80.8361	-92.962	1.96436	30.0046	-60.6881	-24.4633	41.7245	-74.614	-53.7117	54.0166	-88.3907	-16.8966	13.7877	-38.3938	-41.9231	26.3119	-50.4663	-68.3079	33.4268	-56.4337	-23.6794	7.37089	-12.735	-45.0189	14.8671	-9.74961	-72.0127	20.4556	-15.7231	34.8957	-2.02917	-15.2173	57.7115	-12.2482	9.84647	70.2469	17.6156	-17.514	
52	0.433333	83.873	56.9396	-7.4036	66.0119	89.6739	-9.36323	47.0544	115.249	-16.5205	39.7768	137.869	-19.3548	28.1181	52.7196	-72.0775	13.6883	70.6929	-88.0447	-9.89641	85.8229	-99.0872	3.62493	34.5296	-64.001	-16.1566	51.5262	-78.1856	-44.8217	65.3849	-88.6878	-14.2236	27.607	-42.24	-35.3381	40.224	-49.6265	-60.2278	53.5706	-58.8352	-19.532	21.8909	-12.6157	-41.2089	35.6365	-13.9255	-62.9947	44.3777	-17.6355	33.0052	-1.41693	-12.125	59.1511	-9.85634	11.7299	69.8011	11.8157	-17.299	
